<svg width="1440" height="260" viewBox="0 0 1440 260" fill="none" xmlns="http://www.w3.org/2000/svg" preserveAspectRatio="none">
  <defs>
    <linearGradient id="waveFill" x1="0" y1="145" x2="1440" y2="145" gradientUnits="userSpaceOnUse">
      <stop stop-color="#1F66F2" stop-opacity="0.34"/>
      <stop offset="0.46" stop-color="#7B6BFF" stop-opacity="0.18"/>
      <stop offset="1" stop-color="#D45AF2" stop-opacity="0.26"/>
    </linearGradient>
    <linearGradient id="waveLine" x1="20" y1="130" x2="1420" y2="92" gradientUnits="userSpaceOnUse">
      <stop stop-color="#145BFF" stop-opacity="0"/>
      <stop offset="0.18" stop-color="#1F66F2" stop-opacity="0.24"/>
      <stop offset="0.62" stop-color="#7B6BFF" stop-opacity="0.3"/>
      <stop offset="1" stop-color="#D45AF2" stop-opacity="0.22"/>
    </linearGradient>
    <linearGradient id="waveWash" x1="0" y1="238" x2="1440" y2="238" gradientUnits="userSpaceOnUse">
      <stop stop-color="#1F66F2" stop-opacity="0.08"/>
      <stop offset="0.56" stop-color="#FFFFFF" stop-opacity="0.68"/>
      <stop offset="1" stop-color="#D45AF2" stop-opacity="0.1"/>
    </linearGradient>
  </defs>
  <path d="M0 178C182 231 324 238 506 205C684 172 858 136 1052 128C1212 122 1322 132 1440 150V260H0V178Z" fill="url(#waveFill)"/>
  <path d="M0 214C178 247 344 250 534 226C732 200 902 178 1096 178C1250 178 1358 193 1440 214V260H0V214Z" fill="url(#waveWash)"/>
  <path d="M0 178C182 231 324 238 506 205C684 172 858 136 1052 128C1212 122 1322 132 1440 150" stroke="url(#waveLine)" stroke-width="1.35"/>
</svg>
