<svg width="1200" height="760" viewBox="0 0 1200 760" fill="none" xmlns="http://www.w3.org/2000/svg">
  <defs>
    <linearGradient id="bg" x1="90" y1="40" x2="1110" y2="720" gradientUnits="userSpaceOnUse">
      <stop stop-color="#E8E9ED"/><stop offset="1" stop-color="#C9CBD2"/>
    </linearGradient>
    <linearGradient id="cta" x1="0" y1="0" x2="1" y2="1">
      <stop stop-color="#9E55FF"/><stop offset="1" stop-color="#3C3BFF"/>
    </linearGradient>
    <filter id="shadow" x="70" y="55" width="1060" height="660" filterUnits="userSpaceOnUse">
      <feDropShadow dx="0" dy="28" stdDeviation="28" flood-color="#07070A" flood-opacity="0.22"/>
    </filter>
  </defs>
  <rect width="1200" height="760" fill="url(#bg)"/>
  <circle cx="1070" cy="96" r="150" fill="#FFFFFF" fill-opacity="0.45"/>
  <circle cx="92" cy="704" r="190" fill="#8A5CFF" fill-opacity="0.13"/>
  <g filter="url(#shadow)">
    <rect x="108" y="88" width="984" height="566" rx="25" fill="#F9F9FA"/>
    <path d="M108 113C108 99.193 119.193 88 133 88H1067C1080.81 88 1092 99.193 1092 113V143H108V113Z" fill="#111116"/>
    <circle cx="142" cy="116" r="6" fill="#FF6A68"/><circle cx="162" cy="116" r="6" fill="#FFC85C"/><circle cx="182" cy="116" r="6" fill="#54D38A"/>
    <rect x="222" y="107" width="246" height="18" rx="9" fill="#2C2C33"/>
    <rect x="158" y="191" width="410" height="328" rx="22" fill="#FFFFFF"/>
    <rect x="194" y="225" width="92" height="12" rx="6" fill="#6C55FF"/>
    <rect x="194" y="266" width="302" height="25" rx="12.5" fill="#16161B"/>
    <rect x="194" y="306" width="256" height="25" rx="12.5" fill="#16161B"/>
    <rect x="194" y="359" width="300" height="10" rx="5" fill="#C7C8CE"/>
    <rect x="194" y="382" width="244" height="10" rx="5" fill="#D5D6DA"/>
    <rect x="194" y="426" width="140" height="44" rx="22" fill="url(#cta)"/>
    <circle cx="311" cy="448" r="4" fill="#63F06D"/>
    <rect x="604" y="191" width="438" height="328" rx="22" fill="#101116"/>
    <circle cx="823" cy="355" r="120" fill="#7460FF" fill-opacity="0.22"/>
    <path d="M663 430C710 399 753 419 789 365C826 311 858 289 910 319C951 343 969 300 1001 269" stroke="#9E55FF" stroke-width="9" stroke-linecap="round"/>
    <path d="M663 430C710 399 753 419 789 365C826 311 858 289 910 319C951 343 969 300 1001 269V474H663V430Z" fill="#6B4EFF" fill-opacity="0.16"/>
    <circle cx="789" cy="365" r="11" fill="#FFFFFF"/><circle cx="910" cy="319" r="11" fill="#FFFFFF"/>
    <rect x="158" y="552" width="884" height="54" rx="18" fill="#ECECF0"/>
    <rect x="184" y="572" width="156" height="14" rx="7" fill="#B7B8C0"/>
    <rect x="874" y="566" width="142" height="26" rx="13" fill="#FFFFFF"/>
  </g>
</svg>
