<svg version="1.1" id="Layer_1" xmlns="http://www.w3.org/2000/svg" xmlns:xlink="http://www.w3.org/1999/xlink" x="0px" y="0px"
	 width="100%" viewBox="0 0 1741 903" enable-background="new 0 0 1741 903" xml:space="preserve">





















































































































































































































<path fill="#FFFFFF" opacity="1.000000" stroke="none"
	d="
M1462.037720,409.424072 
	C1462.437256,409.502014 1462.836670,409.579987 1463.998657,409.721436 
	C1472.892944,409.690613 1481.024780,409.596283 1489.156616,409.501953 
	C1489.566040,409.554688 1489.975586,409.607422 1491.124512,409.682495 
	C1499.269775,409.578369 1506.675415,409.451904 1514.081177,409.325409 
	C1520.041260,409.386505 1526.001343,409.447632 1532.545898,409.905853 
	C1533.337036,413.217651 1533.543701,416.132324 1533.679932,419.502594 
	C1533.709229,423.960693 1533.808960,427.963226 1533.746582,432.341766 
	C1533.664917,441.117493 1533.745361,449.517242 1533.687378,458.351501 
	C1533.654907,462.207214 1533.760742,465.628357 1533.745483,469.480713 
	C1533.704712,473.958252 1533.785034,478.004669 1533.708008,482.489807 
	C1533.511963,488.663239 1533.574585,494.401581 1533.369995,500.130341 
	C1533.311646,501.762054 1532.477417,503.366089 1531.610352,504.857239 
	C1530.147583,504.823273 1529.073608,504.914856 1527.547485,504.891052 
	C1522.733521,504.826569 1518.371582,504.877441 1513.640381,504.761780 
	C1505.177124,504.705322 1497.083496,504.815369 1488.564819,504.857422 
	C1486.427612,504.873352 1484.715332,504.957245 1482.561279,504.906433 
	C1478.745483,504.859528 1475.371582,504.947296 1471.552368,504.919250 
	C1467.739380,504.858429 1464.371704,504.913452 1460.642822,504.784576 
	C1453.185547,504.722229 1446.089355,504.843842 1438.535889,504.886993 
	C1434.051392,504.886230 1430.024414,504.963898 1425.547119,504.927734 
	C1421.065308,504.869781 1417.033691,504.925720 1412.634277,504.812866 
	C1404.510254,504.758331 1396.753906,504.872589 1388.536133,504.901825 
	C1382.381470,504.905304 1376.687988,504.993774 1370.563599,504.966553 
	C1367.755737,504.893097 1365.379028,504.935333 1362.640381,504.795349 
	C1354.514160,504.720642 1346.749756,504.828156 1338.612183,504.848267 
	C1337.490723,504.856049 1336.742188,504.951202 1335.536377,504.938385 
	C1327.720093,504.878052 1320.361084,504.925720 1312.631592,504.811859 
	C1304.505737,504.759155 1296.750610,504.867950 1288.535400,504.880981 
	C1279.717896,504.850098 1271.360596,504.915009 1262.628174,504.829010 
	C1254.167358,504.771423 1246.081543,504.864777 1237.532349,504.883698 
	C1229.050415,504.846558 1221.031738,504.883850 1212.636719,504.771362 
	C1204.168457,504.721527 1196.076538,504.821472 1187.650635,504.842712 
	C1186.876831,504.856079 1186.436890,504.948059 1185.541016,504.924377 
	C1177.390869,504.865051 1169.696777,504.921326 1161.635010,504.808594 
	C1158.472168,504.632721 1155.673340,504.532471 1152.882324,504.639038 
	C1147.574219,504.841675 1142.270630,505.162567 1136.654541,505.428864 
	C1135.540649,505.743744 1134.737305,506.064056 1133.897217,506.417633 
	C1133.860596,506.450897 1133.834839,506.240326 1133.799316,505.791443 
	C1131.510498,505.246948 1129.257202,505.151306 1126.568604,504.926025 
	C1123.421509,504.877502 1120.709473,504.958618 1117.581299,504.924316 
	C1115.443359,504.870148 1113.721924,504.931396 1111.637695,504.813110 
	C1103.512329,504.733795 1095.749634,504.834076 1087.523804,504.862518 
	C1080.039673,504.871796 1073.018799,504.952911 1065.558228,504.909882 
	C1062.079468,504.852142 1059.040283,504.918549 1055.646484,504.807678 
	C1052.447266,504.639496 1049.602783,504.648621 1046.642090,504.158661 
	C1046.465332,496.502136 1046.404663,489.344666 1046.530762,481.739136 
	C1046.591309,472.139618 1046.465210,462.988159 1046.417969,453.386475 
	C1046.487427,446.336823 1046.477905,439.737396 1046.645020,432.691467 
	C1046.719604,427.441528 1046.617676,422.638092 1046.568848,417.396362 
	C1046.730591,414.586121 1046.839355,412.214172 1047.418701,409.839996 
	C1052.940552,409.677002 1057.992065,409.516235 1063.380737,409.466797 
	C1065.135132,409.515991 1066.552124,409.453827 1068.330811,409.582947 
	C1074.136841,409.674194 1079.581055,409.574188 1085.434204,409.541687 
	C1095.220825,409.541229 1104.598511,409.473328 1114.342285,409.588013 
	C1122.191650,409.664764 1129.674805,409.558899 1137.605957,409.553223 
	C1145.718262,409.535645 1153.382812,409.417877 1161.326416,409.437256 
	C1162.015869,409.541077 1162.426270,409.507721 1163.291016,409.637451 
	C1171.881714,409.689423 1180.017944,409.578308 1188.604858,409.552795 
	C1196.052979,409.524872 1203.050537,409.411316 1210.377319,409.436707 
	C1211.416504,409.536499 1212.126465,409.497345 1213.262939,409.619202 
	C1216.808838,409.643555 1219.928467,409.506897 1223.506592,409.437622 
	C1228.622437,409.420227 1233.279541,409.335419 1238.302734,409.442413 
	C1246.738770,409.622131 1254.808716,409.610046 1263.339355,409.725128 
	C1269.882812,409.696533 1275.965576,409.540802 1282.472290,409.453674 
	C1284.604126,409.429565 1286.311890,409.336823 1288.381348,409.444702 
	C1296.782471,409.602081 1304.822021,409.558868 1313.322021,409.649445 
	C1321.906494,409.676636 1330.030396,409.570068 1338.578613,409.572815 
	C1345.337524,409.571716 1351.672241,409.461273 1358.370850,409.482422 
	C1359.727539,409.358948 1360.720337,409.103821 1361.748535,408.851349 
	C1361.784180,408.854034 1361.815186,408.855499 1362.056641,409.069580 
	C1362.718506,409.322052 1363.138672,409.360443 1363.882935,409.577637 
	C1372.191284,409.653046 1380.175781,409.549591 1388.607666,409.547607 
	C1397.320923,409.588104 1405.586670,409.527100 1414.309082,409.616699 
	C1422.550293,409.688934 1430.334961,409.610596 1438.548828,409.625854 
	C1441.319214,409.652191 1443.660522,409.584869 1446.406250,409.636993 
	C1448.204834,409.677704 1449.598999,409.598969 1451.439819,409.638245 
	C1455.270264,409.645508 1458.653931,409.534790 1462.037720,409.424072 
z"/>










































































































<path fill="#FFFFFF" opacity="1.000000" stroke="none"
	d="
M111.558784,86.039230 
	C110.030853,84.345398 108.796021,82.797813 107.251953,81.131927 
	C105.769974,78.943878 104.597237,76.874130 104.142593,74.758560 
	C109.553642,74.594070 114.246605,74.475388 119.388145,74.514473 
	C133.898834,74.538422 147.960938,74.404594 162.471222,74.405243 
	C168.269348,74.459518 173.619308,74.379326 179.413940,74.456932 
	C188.596832,74.489540 197.335022,74.364342 206.073212,74.239151 
	C211.733002,74.343315 217.392807,74.447479 223.945404,74.575012 
	C237.237564,74.479431 249.636948,74.360474 262.300659,74.493988 
	C271.716888,85.140167 280.868805,95.533867 290.137207,106.244675 
	C294.123993,110.762146 297.994293,114.962517 301.942566,119.477417 
	C303.352081,121.179810 304.683533,122.567673 306.096191,124.247757 
	C307.016418,125.397820 307.855499,126.255669 308.777405,127.416504 
	C309.475494,128.260895 310.090729,128.802292 310.771606,129.251007 
	C310.837189,129.158325 310.655731,129.294861 310.784576,129.604584 
	C317.336151,137.040298 323.758881,144.166275 330.287445,151.596771 
	C331.142700,152.648773 331.892090,153.396255 332.762939,154.454514 
	C334.257080,156.176620 335.629791,157.587967 337.094482,159.321442 
	C340.728333,163.579208 344.270233,167.514847 347.921509,171.754150 
	C350.102234,174.343048 352.173615,176.628265 354.339844,179.198944 
	C355.293213,180.312775 356.151672,181.141159 357.052063,182.221436 
	C357.361786,182.659912 357.629578,182.846497 357.993347,183.359299 
	C360.934174,186.835098 363.779114,189.984665 366.749451,193.457520 
	C369.315826,196.497406 371.756836,199.214005 374.305115,202.242218 
	C378.254456,206.753891 382.096527,210.953979 386.015350,215.462723 
	C387.100098,216.837570 388.108154,217.903732 389.211823,219.287384 
	C392.516388,223.091751 395.725342,226.578613 399.024170,230.389526 
	C402.060303,233.852615 405.006531,236.991669 408.051636,240.448059 
	C411.015259,243.872437 413.879974,246.979507 416.850403,250.413300 
	C422.655273,257.083374 428.354431,263.426727 434.129150,270.045380 
	C434.508759,270.531952 434.812744,270.743225 435.224854,271.268188 
	C438.249908,274.692352 441.166840,277.802856 444.177216,281.237549 
	C448.493317,286.097137 452.715942,290.632538 456.982605,295.403015 
	C457.198425,295.955750 457.464478,296.101868 457.924744,296.377838 
	C459.048157,297.713745 460.071594,298.748291 461.215179,300.101196 
	C478.538788,319.659302 495.742218,338.899078 513.031616,358.461548 
	C515.977722,361.879181 518.837891,364.974121 521.731323,368.289948 
	C522.314636,368.943451 522.864563,369.376099 523.559753,370.150574 
	C543.766418,393.357788 563.930420,416.134888 583.766602,439.194061 
	C586.411255,442.268433 588.731384,446.731049 588.851440,450.623260 
	C589.061951,457.450592 587.452759,464.334045 586.389771,471.393494 
	C584.012390,474.014740 581.851074,476.436432 579.410583,478.966614 
	C578.393982,479.995636 577.656494,480.916260 576.608521,481.970764 
	C567.491272,491.421265 558.657776,500.712677 549.884033,510.060059 
	C535.538879,525.343140 521.232605,540.662598 506.667542,556.032104 
	C506.277771,556.384277 506.130402,556.670959 505.673187,557.085754 
	C498.595612,564.485718 491.827850,571.757690 484.757904,579.162903 
	C483.185822,580.811646 481.915955,582.327148 480.344299,583.958740 
	C473.294373,591.349854 466.546234,598.624878 459.514191,606.003174 
	C458.460480,607.014282 457.690674,607.922058 456.614807,608.973389 
	C449.571930,616.424194 442.835083,623.731445 435.798767,631.177734 
	C434.022247,632.884033 432.545135,634.451233 430.833801,636.255676 
	C424.758911,642.734253 418.918304,648.975647 412.781799,655.350525 
	C410.285950,657.906372 408.086029,660.328674 405.571899,662.877625 
	C399.595581,669.033203 393.933563,675.062195 387.970703,681.251953 
	C385.360352,683.909241 383.050873,686.405762 380.437836,689.015747 
	C375.155060,694.450928 370.175842,699.772583 364.907898,705.266602 
	C361.733795,708.598633 358.848389,711.758240 355.649506,715.040649 
	C350.103851,720.720154 344.871704,726.276855 339.348114,731.977539 
	C336.371552,735.081970 333.686401,738.042419 330.689453,741.123779 
	C325.456940,746.437683 320.536163,751.630676 315.329041,756.976196 
	C311.705536,760.773499 308.368378,764.418274 304.718811,768.178345 
	C300.855896,772.158813 297.305359,776.023987 293.461853,780.036011 
	C288.803406,784.842773 284.437927,789.502625 279.771606,794.295044 
	C276.290436,797.895203 273.110107,801.362915 269.619995,804.967896 
	C264.482971,810.377991 259.655762,815.650757 254.518219,821.043945 
	C250.281326,826.236511 245.679794,829.217346 238.692856,828.394531 
	C233.200287,827.747803 227.543411,828.496277 221.959534,828.624878 
	C208.282776,828.549927 194.606033,828.474976 180.039001,828.402222 
	C155.051102,828.383667 130.953430,828.324707 106.855919,828.361389 
	C97.568909,828.375549 88.282242,828.607178 78.565216,828.560425 
	C74.405037,828.381165 70.675064,828.381226 66.667496,828.021301 
	C66.322594,827.365845 66.255287,827.070312 66.457947,826.541809 
	C87.213943,804.753967 107.711273,783.209961 128.180847,761.639465 
	C137.198227,752.137085 146.159164,742.581055 155.448792,732.918701 
	C164.920456,723.225464 174.089081,713.662842 183.557495,703.969666 
	C190.886703,696.323425 197.916122,688.807861 205.224472,681.174133 
	C213.400650,672.727417 221.297897,664.398865 229.421356,656.024292 
	C229.941971,655.803040 230.083832,655.544067 230.389496,655.112061 
	C231.266327,654.371155 231.826752,653.719666 232.667511,652.926392 
	C239.676529,645.537720 246.405228,638.290894 253.428802,630.966919 
	C254.503174,629.979797 255.282654,629.069824 256.381683,628.043335 
	C263.159424,620.959351 269.617584,613.991821 276.379028,606.922974 
	C277.787109,605.541687 278.891968,604.261719 280.307190,602.886719 
	C282.219269,601.171509 283.820984,599.551453 285.800964,597.980957 
	C287.407837,597.203247 288.710876,596.467163 289.853607,595.534607 
	C302.221680,585.441650 314.466949,575.195679 326.932495,565.224976 
	C365.262115,534.566650 407.780334,511.006409 452.625031,491.429108 
	C457.477631,489.310699 459.253113,483.970947 455.978149,479.792999 
	C451.162994,473.650238 445.977570,467.797699 440.848938,461.545166 
	C439.889771,460.494232 439.031525,459.719696 438.051788,458.639893 
	C436.413849,456.828217 434.897400,455.321777 433.373169,453.455200 
	C420.119049,437.733154 406.876404,422.368042 393.599609,407.032440 
	C393.336182,406.728210 392.673462,406.769653 392.256226,406.304871 
	C389.602417,403.159821 386.889465,400.359741 384.162048,397.271973 
	C383.402435,396.153503 382.657318,395.322693 381.745850,394.183899 
	C378.730652,390.555878 375.881775,387.235870 372.976868,383.638123 
	C372.369537,382.871277 371.818268,382.382141 371.155640,381.567688 
	C366.387939,376.150208 361.731628,371.058014 357.087891,365.617920 
	C347.053284,353.850861 337.006134,342.431702 326.859558,330.692139 
	C319.349243,322.066864 311.938446,313.761993 304.377502,305.158997 
	C276.775574,273.774261 249.365723,242.650375 221.850372,211.620056 
	C211.472916,199.916916 200.851257,188.430313 190.233353,176.516022 
	C187.389374,173.180969 184.652969,170.174911 181.799118,166.850433 
	C177.888611,162.309219 174.095535,158.086411 170.196381,153.547302 
	C168.393616,151.393173 166.696930,149.555328 164.874969,147.408142 
	C163.948853,146.348190 163.147995,145.597565 162.244797,144.527527 
	C160.379257,142.379669 158.616043,140.551224 156.708099,138.392090 
	C153.600540,134.716522 150.637711,131.371628 147.577835,127.720200 
	C142.310333,121.630081 137.139862,115.846497 131.870728,109.742432 
	C129.819809,107.289719 127.867546,105.157478 125.915276,103.025238 
	C123.386093,99.994164 120.856911,96.963089 118.048981,93.792664 
	C115.797447,91.164032 113.824669,88.674759 111.558784,86.039230 
z"/>




























<path fill="#FFFFFF" opacity="1.000000" stroke="none"
	d="
M1439.027954,73.571602 
	C1447.042114,73.649727 1455.056152,73.727852 1463.976318,73.797485 
	C1472.926270,73.723152 1480.969971,73.657310 1489.464355,73.725388 
	C1498.271973,73.782593 1506.628784,73.705902 1515.439331,73.754662 
	C1520.603638,73.858200 1525.320068,73.704811 1530.020752,73.910713 
	C1531.137085,73.959602 1532.200439,75.212173 1532.802124,75.937408 
	C1372.409302,75.975914 1212.502563,75.988213 1052.595825,75.997543 
	C1051.597168,75.997597 1050.534668,76.156647 1049.621338,75.866272 
	C1048.976807,75.661331 1048.534424,74.820641 1048.452148,74.125359 
	C1056.922852,73.807076 1064.943115,73.627213 1073.412109,73.590782 
	C1078.583740,73.678535 1083.306641,73.622871 1088.478760,73.700256 
	C1096.941772,73.736092 1104.955444,73.638878 1113.425537,73.663391 
	C1121.932129,73.700439 1129.982056,73.615761 1138.482910,73.656792 
	C1146.945801,73.695824 1154.957764,73.609138 1163.425537,73.646362 
	C1171.925659,73.709625 1179.969971,73.648979 1188.463135,73.728722 
	C1196.930542,73.749077 1204.949219,73.629044 1213.420410,73.626221 
	C1217.927002,73.660019 1221.980957,73.576591 1226.485962,73.616150 
	C1240.613281,73.658035 1254.289429,73.576920 1268.419189,73.629379 
	C1275.258057,73.701881 1281.643311,73.640816 1288.479004,73.708908 
	C1298.275879,73.725609 1307.622314,73.613152 1317.421143,73.637497 
	C1324.592407,73.698456 1331.311401,73.622604 1338.477417,73.687927 
	C1346.939819,73.730995 1354.954956,73.632881 1363.426270,73.657875 
	C1372.263672,73.716370 1380.645020,73.651764 1389.478271,73.710739 
	C1397.948242,73.731186 1405.966064,73.628044 1414.438232,73.648987 
	C1422.937744,73.705917 1430.982788,73.638763 1439.027954,73.571602 
z"/>









































































































































































































































































































































<path fill="#1C3DFD" opacity="1.000000" stroke="none" 
	d="
M732.993713,430.000671 
	C735.657715,431.503784 738.321777,433.006897 741.535034,434.855377 
	C747.377136,438.157135 752.670044,441.113525 757.962891,444.069946 
	C765.283447,448.719818 772.604004,453.369751 780.446655,458.362732 
	C781.934570,459.237335 782.900452,459.768860 784.052490,460.568481 
	C792.824646,466.896271 801.410645,472.956024 810.146118,479.293457 
	C811.511841,480.386322 812.728027,481.201538 814.095215,482.317017 
	C821.181335,488.039185 828.116394,493.461121 835.235962,499.162537 
	C849.695007,510.833954 863.721252,522.555847 878.305664,533.536316 
	C897.610474,548.070923 917.351990,562.025452 937.090515,576.504395 
	C951.402832,586.267761 965.462830,595.858948 979.683899,605.205139 
	C988.001343,610.671387 996.576050,615.746460 1005.065186,621.262451 
	C1005.397461,621.675110 1005.699524,621.822876 1006.140015,622.261963 
	C1006.896484,622.693542 1007.514526,622.833740 1008.131470,623.224121 
	C1008.406311,623.533081 1008.682312,623.591858 1009.234619,623.711548 
	C1009.684204,623.846680 1009.857544,623.921021 1010.105957,624.297485 
	C1010.776184,624.683350 1011.371277,624.767029 1012.197205,625.057129 
	C1012.628296,625.313660 1012.828613,625.363708 1013.238525,625.648132 
	C1027.622803,634.275146 1041.797241,642.667786 1055.909058,651.414795 
	C1054.789062,652.459534 1053.717285,653.763794 1052.677124,653.738953 
	C1046.734131,653.596741 1040.784668,653.293823 1034.863770,652.755249 
	C1022.089050,651.593323 1009.322876,650.322937 996.570618,648.937378 
	C993.679443,648.623230 990.783264,647.883179 988.020081,646.951477 
	C979.586548,644.107239 971.302429,640.793091 962.796448,638.198486 
	C955.234375,635.891785 947.363770,634.600098 939.791748,632.320862 
	C929.723328,629.290222 919.548584,628.080688 909.107666,629.036743 
	C905.686829,629.349915 902.283875,629.857788 898.576538,630.103027 
	C892.490051,621.962585 886.699829,613.995789 880.816162,605.704712 
	C878.996277,602.928528 877.376648,600.392517 875.525879,598.038330 
	C864.664856,584.222839 853.749939,570.449829 842.752075,556.324219 
	C840.814941,553.964539 838.978943,551.943115 837.029785,549.602417 
	C835.710266,547.910034 834.518005,546.524475 833.295532,545.165955 
	C820.942688,531.438843 807.809814,518.557068 792.577148,507.454376 
	C790.251099,505.531982 788.088196,503.931458 785.826965,502.278076 
	C785.728577,502.225281 785.533936,502.115814 785.426086,501.910400 
	C784.884949,501.533447 784.451660,501.361938 783.775879,500.942139 
	C779.803528,498.179047 776.180664,495.483124 772.314026,493.199890 
	C768.357239,490.863464 764.161560,488.931396 759.960144,486.496796 
	C756.998169,484.712952 754.146545,483.254639 751.070190,481.531281 
	C745.653320,478.980530 740.461121,476.694824 734.990356,474.207611 
	C726.199036,471.445312 717.686279,468.884491 708.850708,466.144379 
	C701.689880,464.956848 694.851868,463.948639 687.579956,462.910675 
	C685.512695,462.839661 683.876343,462.848236 682.246521,462.748718 
	C674.169983,462.255524 666.095093,461.733826 657.563232,461.139343 
	C649.032837,461.779327 640.958801,462.502167 632.437988,463.155609 
	C623.307983,464.657043 614.624756,466.227875 605.522644,467.750641 
	C598.937744,468.866364 592.771790,470.030151 586.605774,471.193939 
	C587.452759,464.334045 589.061951,457.450592 588.851440,450.623260 
	C588.731384,446.731049 586.411255,442.268433 583.766602,439.194061 
	C563.930420,416.134888 543.766418,393.357788 523.738831,369.995575 
	C523.772705,369.498749 524.055054,369.122833 524.500427,369.258179 
	C527.439087,369.550323 529.932312,369.707153 532.708008,369.984192 
	C540.989075,371.089111 548.987671,372.073761 557.310120,373.280457 
	C565.394470,374.855621 573.155090,376.208771 581.229919,377.725525 
	C590.029846,379.613708 598.515442,381.338318 607.306519,383.288330 
	C609.338440,383.915985 611.064880,384.318268 613.076904,384.910583 
	C619.859985,386.862305 626.357361,388.623993 633.135559,390.611267 
	C642.564941,393.749084 651.713623,396.661285 661.142944,399.771912 
	C672.624146,404.147217 683.981445,407.952515 694.984131,412.597900 
	C707.815796,418.015533 720.337524,424.167419 732.993713,430.000671 
z"/>
<path fill="#1C3DFD" opacity="1.000000" stroke="none" 
	d="
M440.949890,461.821533 
	C445.977570,467.797699 451.162994,473.650238 455.978149,479.792999 
	C459.253113,483.970947 457.477631,489.310699 452.625031,491.429108 
	C407.780334,511.006409 365.262115,534.566650 326.932495,565.224976 
	C314.466949,575.195679 302.221680,585.441650 289.853607,595.534607 
	C288.710876,596.467163 287.407837,597.203247 285.980713,597.662659 
	C290.361908,592.249268 294.941620,587.203857 299.795288,582.005371 
	C305.748474,576.023132 311.388672,570.155212 317.114807,564.372314 
	C330.074097,551.284668 343.075836,538.238953 356.384033,525.070312 
	C363.213135,519.000549 369.718506,513.036682 376.529663,506.978821 
	C378.588593,505.359192 380.341644,503.833557 382.427673,502.203735 
	C390.867859,495.762482 398.975006,489.425385 407.423157,483.022186 
	C415.862000,477.681030 423.959869,472.405975 432.401794,467.068909 
	C435.480469,465.278412 438.215179,463.549957 440.949890,461.821533 
z"/>



























































































<path fill="#FFFFFF" opacity="1.000000" stroke="none"
	d="
M1048.001709,74.263763 
	C1048.534424,74.820641 1048.976807,75.661331 1049.621338,75.866272 
	C1050.534668,76.156647 1051.597168,75.997597 1052.595825,75.997543 
	C1212.502563,75.988213 1372.409302,75.975914 1532.933105,76.174675 
	C1533.651001,76.908852 1533.751953,77.432083 1533.683838,78.329353 
	C1533.642334,87.134300 1533.769897,95.565201 1533.751221,104.441422 
	C1533.713501,111.932594 1533.822021,118.978455 1533.787231,126.470573 
	C1533.675049,135.940536 1533.706299,144.964249 1533.615845,154.440765 
	C1533.004028,159.259079 1532.514038,163.624573 1531.572388,167.860992 
	C1369.821045,167.731903 1208.521240,167.731903 1047.077393,167.731903 
	C1046.762695,165.839569 1046.524536,164.407730 1046.425293,162.582123 
	C1046.486694,160.812027 1046.409424,159.435684 1046.485352,157.609985 
	C1046.531006,146.086014 1046.423462,135.011414 1046.442871,123.499435 
	C1046.488892,119.727715 1046.407715,116.393341 1046.487793,112.611908 
	C1046.553345,100.421036 1046.457886,88.677231 1046.482910,76.591980 
	C1047.069458,75.588264 1047.535522,74.926010 1048.001709,74.263763 
z"/>














<path fill="#FFFFFF" opacity="1.000000" stroke="none"
	d="
M760.098633,131.245453 
	C766.071899,124.739975 772.045166,118.234505 778.435181,111.270081 
	C788.890991,99.536545 798.930115,88.261971 809.264587,76.894218 
	C810.340881,75.851730 811.121826,74.902412 811.902710,73.953094 
	C812.092163,73.959457 812.281616,73.965836 812.844910,74.456680 
	C815.083374,75.294212 816.947571,75.953110 818.812622,75.955505 
	C863.617737,76.013046 908.422913,75.985558 953.228027,76.043427 
	C955.498047,76.046356 957.767212,76.675430 960.036804,77.012970 
	C952.626343,85.399277 945.215942,93.785583 937.493652,102.581856 
	C936.940979,103.201965 936.849487,103.464195 936.601318,103.926689 
	C929.250427,112.073944 922.205505,120.073029 914.876587,128.212494 
	C913.707397,129.517685 912.822266,130.682510 911.627686,131.984467 
	C905.495789,138.723038 899.673340,145.324493 893.552124,152.068192 
	C882.483154,164.430832 871.713013,176.651230 860.637329,189.014053 
	C856.283936,193.800674 852.236084,198.444855 847.898804,203.260834 
	C843.380615,208.238678 839.151794,213.044724 834.609619,217.977936 
	C831.145142,221.713181 827.994019,225.321274 824.551025,229.083130 
	C819.446655,234.689743 814.634094,240.142578 809.518066,245.742264 
	C807.521484,247.948349 805.828247,250.007584 803.834351,252.217331 
	C786.512634,271.277893 769.468628,290.167450 752.482361,309.108826 
	C746.282959,316.021759 740.221252,323.058105 733.824280,330.143860 
	C733.094360,330.858704 732.636780,331.467834 731.879395,332.231567 
	C725.076599,339.673523 718.552917,346.942535 712.075867,354.252869 
	C703.419312,364.023102 694.799011,373.825409 685.842407,383.729004 
	C683.480225,383.236572 681.426514,382.667664 679.399597,382.015411 
	C663.925232,377.035919 648.456055,372.040100 632.694458,366.821014 
	C623.864990,364.491547 615.326355,362.390472 606.513367,360.114075 
	C599.495789,358.592346 592.752625,357.245941 585.702515,355.714722 
	C584.925293,355.500580 584.455017,355.471222 583.874268,355.347321 
	C583.570862,355.227905 583.381714,355.244934 583.196350,355.303864 
	C583.196350,355.303864 582.827087,355.081512 582.317505,354.944092 
	C576.355347,353.725983 570.902771,352.645325 564.743225,351.424530 
	C570.546265,344.569275 575.843445,338.311646 581.382690,331.988831 
	C581.755432,331.629944 581.886047,331.336212 582.317627,330.894989 
	C589.462524,322.851868 596.306580,314.956268 603.449707,306.944550 
	C604.809692,305.499359 605.870544,304.170319 607.227783,302.698425 
	C613.813110,295.421387 620.102112,288.287201 626.683105,281.015625 
	C628.965271,278.537811 630.955566,276.197388 633.249390,273.728363 
	C638.682007,267.722870 643.810974,261.845978 649.246826,255.832092 
	C652.797852,251.834717 656.041931,247.974319 659.594116,244.012665 
	C663.967285,239.288254 668.032227,234.665070 672.395752,229.897171 
	C676.445251,225.455658 680.196167,221.158859 684.248230,216.729950 
	C687.021545,213.727219 689.493652,210.856628 692.263367,207.839417 
	C698.041321,201.463486 703.521667,195.234207 709.298828,188.854401 
	C712.090637,185.814056 714.585693,182.924240 717.381836,179.892761 
	C719.979736,177.119263 722.269897,174.481644 724.574402,171.856598 
	C735.972534,158.872818 747.374451,145.892349 759.028687,132.787903 
	C759.554443,132.191864 759.826538,131.718658 760.098633,131.245453 
z"/>




<path fill="#FFFFFF" opacity="1.000000" stroke="none"
	d="
M912.024658,73.620697 
	C928.139587,73.739395 944.254578,73.858093 960.680786,74.368530 
	C961.018494,75.146919 961.044922,75.533585 961.071350,75.920242 
	C960.891052,76.219238 960.710754,76.518242 960.283630,76.915100 
	C957.767212,76.675430 955.498047,76.046356 953.228027,76.043427 
	C908.422913,75.985558 863.617737,76.013046 818.812622,75.955505 
	C816.947571,75.953110 815.083374,75.294212 813.109985,74.559464 
	C821.355164,74.050430 829.708984,73.923096 838.965332,73.833649 
	C844.253845,73.773186 848.639771,73.674835 853.025757,73.576485 
	C864.039612,73.653305 875.053406,73.730133 886.912476,73.807930 
	C888.843323,73.725166 889.929016,73.641434 891.428101,73.680573 
	C893.555725,73.731300 895.269897,73.659157 897.432678,73.725410 
	C902.595764,73.782776 907.310181,73.701736 912.024658,73.620697 
z"/>






<path fill="#300A4B" opacity="1.000000" stroke="none" 
	d="
M961.364014,75.772797 
	C961.044922,75.533585 961.018494,75.146919 961.036987,74.471657 
	C961.228943,74.090271 961.375916,73.997482 961.773438,73.833633 
	C961.901550,74.383507 961.779114,75.004433 961.364014,75.772797 
z"/>





























































































<path fill="#FFFFFF" opacity="1.000000" stroke="none"
	d="
M1439.439941,828.415283 
	C1430.629395,828.487183 1422.276367,828.449280 1413.039673,828.416565 
	C1402.450684,828.476562 1392.745605,828.531433 1382.593262,828.441406 
	C1377.114258,828.408691 1372.082397,828.520935 1366.658203,828.504028 
	C1353.176392,828.458801 1340.087280,828.542664 1326.550903,828.479614 
	C1320.412964,828.431274 1314.722168,828.529968 1308.596436,828.464600 
	C1304.787598,828.411621 1301.413574,828.522644 1297.687500,828.471924 
	C1296.571777,828.210999 1295.807983,828.111816 1295.134277,827.619873 
	C1300.317017,826.591919 1305.409668,825.956909 1309.190796,825.485413 
	C1310.898438,820.684448 1312.087891,816.352173 1313.953735,812.334045 
	C1316.538208,806.768066 1319.565918,801.402161 1322.526978,796.018311 
	C1325.084106,791.368896 1327.675781,786.727722 1330.496948,782.236633 
	C1335.403687,774.425415 1340.266479,766.568726 1345.581421,759.037048 
	C1350.799805,751.642273 1356.261841,744.367371 1362.239258,737.588806 
	C1364.332397,735.215088 1364.987427,733.523315 1364.448242,730.774170 
	C1372.951294,730.522949 1380.990479,730.348938 1389.439697,730.230957 
	C1391.226929,730.248474 1392.604248,730.210022 1394.341675,730.363647 
	C1409.478760,730.435181 1424.255493,730.314697 1439.461914,730.264404 
	C1441.919312,730.285522 1443.947144,730.236328 1446.336182,730.378418 
	C1475.579712,730.612000 1504.462158,730.654175 1533.426025,731.178406 
	C1533.641968,739.783264 1533.776367,747.906006 1533.767578,756.476990 
	C1533.724487,764.940735 1533.824585,772.956299 1533.924683,780.971863 
	C1533.781128,789.322815 1533.637695,797.673706 1533.498779,806.489563 
	C1533.503296,813.876038 1533.503296,820.797607 1533.503296,828.305420 
	C1501.902954,828.305420 1470.900269,828.305420 1439.439941,828.415283 
z"/>












































































































































































































































<path fill="#3834FD" opacity="1.000000" stroke="none" 
	d="
M898.872742,630.276672 
	C902.283875,629.857788 905.686829,629.349915 909.107666,629.036743 
	C919.548584,628.080688 929.723328,629.290222 939.791748,632.320862 
	C947.363770,634.600098 955.234375,635.891785 962.796448,638.198486 
	C971.302429,640.793091 979.586548,644.107239 988.020081,646.951477 
	C990.783264,647.883179 993.679443,648.623230 996.570618,648.937378 
	C1009.322876,650.322937 1022.089050,651.593323 1034.863770,652.755249 
	C1040.784668,653.293823 1046.734131,653.596741 1052.677124,653.738953 
	C1053.717285,653.763794 1054.789062,652.459534 1056.236450,651.451294 
	C1058.198730,651.851196 1059.770874,652.568726 1061.557373,653.564697 
	C1063.783081,654.924927 1065.794556,656.006714 1068.024536,657.354492 
	C1074.816528,661.107361 1081.390015,664.594299 1088.172363,668.353760 
	C1090.308960,669.840454 1092.141479,671.252747 1094.182129,672.231445 
	C1100.146851,675.092102 1106.194824,677.779785 1112.160522,680.834473 
	C1112.114868,681.335693 1112.118774,681.537842 1112.033325,682.132568 
	C1110.508057,682.931946 1109.026001,683.806213 1107.643555,683.670166 
	C1098.037354,682.724426 1088.767456,679.936157 1078.788208,680.720642 
	C1070.160645,681.398865 1061.352051,679.511597 1052.608276,679.041931 
	C1043.010742,678.526489 1033.338257,678.879761 1023.802185,677.872620 
	C1010.369263,676.453918 997.262268,673.286865 984.930176,667.479248 
	C983.736877,666.917297 982.492554,666.438110 981.232544,666.047363 
	C966.309021,661.419556 951.509888,656.305725 936.398499,652.401672 
	C927.661804,650.144470 919.743896,644.221191 909.749084,645.808472 
	C905.932617,640.513916 902.402649,635.395325 898.872742,630.276672 
z"/>


























































































































































































<path fill="#300A4B" opacity="1.000000" stroke="none" 
	d="
M1323.067261,730.758362 
	C1328.733154,730.593750 1334.399170,730.429199 1340.736938,730.392700 
	C1342.274170,730.384705 1343.139526,730.248596 1344.004883,730.112427 
	C1349.688599,730.125671 1355.372437,730.138855 1361.724609,730.292358 
	C1362.923462,730.572266 1363.453857,730.711853 1363.984131,730.851379 
	C1364.987427,733.523315 1364.332397,735.215088 1362.239258,737.588806 
	C1356.261841,744.367371 1350.799805,751.642273 1345.581421,759.037048 
	C1340.266479,766.568726 1335.403687,774.425415 1330.496948,782.236633 
	C1327.675781,786.727722 1325.084106,791.368896 1322.526978,796.018311 
	C1319.565918,801.402161 1316.538208,806.768066 1313.953735,812.334045 
	C1312.087891,816.352173 1310.898438,820.684448 1309.190796,825.485413 
	C1305.409668,825.956909 1300.317017,826.591919 1294.712402,827.765320 
	C1292.447998,828.443054 1290.695679,828.582458 1288.943237,828.721863 
	C1285.933594,828.584717 1282.923950,828.447510 1279.027588,828.283936 
	C1273.464844,828.139343 1268.788940,828.021179 1264.367676,827.433716 
	C1265.077515,819.706299 1267.624634,813.376465 1271.685669,807.239136 
	C1276.856567,799.424316 1281.134277,791.006165 1285.612427,782.748047 
	C1291.420776,772.037048 1296.394531,760.805847 1302.979614,750.606934 
	C1307.448120,743.685974 1313.180298,737.185425 1321.389648,733.828674 
	C1322.227295,733.486206 1322.520996,731.813599 1323.067261,730.758362 
z"/>



















































<path fill="#6804B5" opacity="1.000000" stroke="none" 
	d="
M1187.144287,828.606689 
	C1184.409546,828.469666 1181.674927,828.332642 1178.487549,827.659302 
	C1178.236694,824.993713 1178.065308,822.745117 1178.700684,820.754028 
	C1183.203125,806.646973 1190.783813,794.079407 1198.869751,781.833008 
	C1200.415894,779.491272 1203.292847,778.006470 1205.619385,776.208557 
	C1207.568359,774.702087 1209.910400,773.593323 1211.549805,771.819885 
	C1215.307373,767.755188 1218.863892,763.487244 1222.278442,759.126648 
	C1226.953979,753.155640 1231.661011,747.183655 1235.903564,740.907104 
	C1239.270142,735.926575 1240.579468,729.565002 1246.447632,725.934082 
	C1248.308350,726.167297 1249.732544,726.429932 1251.252441,726.773071 
	C1251.347900,726.853516 1251.827271,726.950378 1252.291504,726.984741 
	C1259.461304,727.512817 1266.166870,728.006470 1273.120605,728.638611 
	C1273.914185,728.914612 1274.459717,729.052185 1275.101318,729.544800 
	C1277.121094,730.455933 1279.044556,731.011963 1280.968018,731.568054 
	C1276.153564,731.337769 1273.445679,734.293396 1271.345947,738.082275 
	C1267.982422,744.151855 1264.546021,750.185303 1261.358643,756.346802 
	C1258.094238,762.657166 1255.303589,769.217834 1251.921509,775.460815 
	C1247.771851,783.120789 1243.207275,790.555298 1238.852051,798.104553 
	C1233.615479,807.181580 1231.699585,818.234192 1222.731079,825.122192 
	C1222.141724,825.574829 1222.257202,826.944763 1221.683105,828.006348 
	C1219.903198,828.297852 1218.484863,828.470947 1217.066650,828.644104 
	C1207.683472,828.565063 1198.300293,828.486023 1188.251709,828.402283 
	C1187.586426,828.397644 1187.144287,828.606689 1187.144287,828.606689 
z"/>



































































































































































<path fill="#452DFD" opacity="1.000000" stroke="none" 
	d="
M937.043396,682.975403 
	C930.086121,673.717712 923.105896,664.477112 916.185425,655.191956 
	C914.108398,652.405273 912.197632,649.494690 910.123169,646.312622 
	C919.743896,644.221191 927.661804,650.144470 936.398499,652.401672 
	C951.509888,656.305725 966.309021,661.419556 981.232544,666.047363 
	C982.492554,666.438110 983.736877,666.917297 984.930176,667.479248 
	C997.262268,673.286865 1010.369263,676.453918 1023.802185,677.872620 
	C1033.338257,678.879761 1043.010742,678.526489 1052.608276,679.041931 
	C1061.352051,679.511597 1070.160645,681.398865 1078.788208,680.720642 
	C1088.767456,679.936157 1098.037354,682.724426 1107.643555,683.670166 
	C1109.026001,683.806213 1110.508057,682.931946 1112.413330,682.196777 
	C1114.599121,682.420349 1116.373047,682.838257 1118.022705,683.545776 
	C1129.286499,688.376343 1140.534180,693.245239 1151.759277,698.165100 
	C1153.383545,698.877014 1154.859253,699.927979 1156.003540,700.873108 
	C1150.426636,702.890991 1145.321045,705.079895 1140.055176,706.768921 
	C1133.300293,708.935547 1126.495117,711.071045 1119.567017,712.536987 
	C1112.195923,714.096680 1104.636230,715.900452 1097.193970,715.758118 
	C1080.015869,715.429504 1062.858765,713.995911 1045.694580,712.984558 
	C1044.052368,712.887817 1042.399658,712.716309 1040.788086,712.396790 
	C1035.298340,711.308167 1029.836426,710.078064 1024.342651,709.010986 
	C1013.372986,706.880371 1002.412964,704.684753 991.402649,702.784363 
	C984.607788,701.611572 977.624756,699.811523 970.921387,700.424988 
	C966.391541,700.839478 963.763123,699.332214 960.766052,697.155579 
	C958.761292,695.699646 956.819458,694.133301 954.995728,692.457214 
	C951.643494,689.376465 948.281921,689.213989 944.462524,691.937134 
	C941.784485,688.846558 939.404053,685.900696 937.015259,682.970703 
	C937.006958,682.986511 937.043396,682.975403 937.043396,682.975403 
z"/>




































































































































































<path fill="#4B0680" opacity="1.000000" stroke="none" 
	d="
M1238.466064,828.431335 
	C1232.934082,828.378845 1227.863403,828.243286 1222.418823,827.997925 
	C1222.257202,826.944763 1222.141724,825.574829 1222.731079,825.122192 
	C1231.699585,818.234192 1233.615479,807.181580 1238.852051,798.104553 
	C1243.207275,790.555298 1247.771851,783.120789 1251.921509,775.460815 
	C1255.303589,769.217834 1258.094238,762.657166 1261.358643,756.346802 
	C1264.546021,750.185303 1267.982422,744.151855 1271.345947,738.082275 
	C1273.445679,734.293396 1276.153564,731.337769 1280.968018,731.568054 
	C1279.044556,731.011963 1277.121094,730.455933 1275.451050,729.457153 
	C1277.423828,728.970886 1279.143188,728.927368 1281.226562,729.014038 
	C1287.761353,729.559753 1293.931885,729.975159 1300.222412,730.745605 
	C1304.543579,730.968872 1308.744629,730.837219 1313.284180,730.546387 
	C1314.096680,730.496460 1314.570557,730.605713 1315.160889,730.972778 
	C1316.505737,731.066528 1317.734497,730.902527 1319.213379,730.544189 
	C1319.642212,730.237610 1319.821045,730.125305 1320.000000,730.013062 
	C1320.783081,730.145691 1321.566284,730.278381 1322.708252,730.584717 
	C1322.520996,731.813599 1322.227295,733.486206 1321.389648,733.828674 
	C1313.180298,737.185425 1307.448120,743.685974 1302.979614,750.606934 
	C1296.394531,760.805847 1291.420776,772.037048 1285.612427,782.748047 
	C1281.134277,791.006165 1276.856567,799.424316 1271.685669,807.239136 
	C1267.624634,813.376465 1265.077515,819.706299 1264.367676,827.433716 
	C1263.543823,828.039795 1262.974609,828.176514 1262.200684,828.422729 
	C1254.306519,828.470886 1246.617065,828.409546 1238.466064,828.431335 
z"/>











































<path fill="#8905F5" opacity="1.000000" stroke="none" 
	d="
M1246.011230,725.963562 
	C1240.579468,729.565002 1239.270142,735.926575 1235.903564,740.907104 
	C1231.661011,747.183655 1226.953979,753.155640 1222.278442,759.126648 
	C1218.863892,763.487244 1215.307373,767.755188 1211.549805,771.819885 
	C1209.910400,773.593323 1207.568359,774.702087 1205.619385,776.208557 
	C1203.292847,778.006470 1200.415894,779.491272 1198.869751,781.833008 
	C1190.783813,794.079407 1183.203125,806.646973 1178.700684,820.754028 
	C1178.065308,822.745117 1178.236694,824.993713 1178.041870,827.559937 
	C1173.007690,828.108276 1167.966431,828.219849 1162.468262,828.426758 
	C1154.311890,828.414612 1146.612671,828.307190 1138.453369,828.293518 
	C1131.362061,827.273438 1124.727783,826.176208 1118.101318,825.034424 
	C1116.327515,824.728760 1114.577026,824.286621 1112.411865,823.945740 
	C1104.260742,821.291260 1096.513672,818.598145 1088.384766,815.940186 
	C1084.908569,814.300720 1081.735596,812.755432 1078.733521,810.929016 
	C1065.740601,803.023804 1052.797607,795.036438 1039.460693,786.768616 
	C1039.085083,786.458313 1038.960449,786.026245 1039.276611,785.873779 
	C1041.640625,783.186646 1044.024048,782.719360 1047.033447,784.109131 
	C1056.264526,788.372192 1065.984131,789.948303 1076.108643,789.000793 
	C1083.678345,788.292358 1091.256592,787.659668 1098.812500,786.825928 
	C1103.237183,786.337708 1107.711060,785.861206 1112.011108,784.777222 
	C1119.514526,782.885498 1126.801758,780.060242 1134.357178,778.468445 
	C1148.378418,775.514343 1158.603638,765.852722 1170.511475,759.154602 
	C1173.094482,757.701782 1176.755737,757.130981 1179.697754,757.587769 
	C1184.405762,758.318665 1190.285645,756.698730 1193.607300,753.093262 
	C1198.420166,747.869202 1203.385864,742.756592 1208.611084,737.949646 
	C1214.310303,732.706787 1220.380249,727.867065 1226.716064,722.841431 
	C1230.768066,723.180359 1234.392334,723.529480 1238.359497,724.044189 
	C1241.138550,724.794373 1243.574951,725.378967 1246.011230,725.963562 
z"/>



<path fill="#8905F5" opacity="1.000000" stroke="none" 
	d="
M1251.252441,726.773071 
	C1251.156860,726.692566 1251.414673,726.485962 1251.414673,726.485962 
	C1251.414673,726.485962 1251.702759,726.646790 1251.765015,726.798584 
	C1251.827271,726.950378 1251.347900,726.853516 1251.252441,726.773071 
z"/>






























































































<path fill="#5C25FC" opacity="1.000000" stroke="none" 
	d="
M983.940308,737.171082 
	C981.267029,734.669189 978.593811,732.167236 975.590515,729.301025 
	C970.928101,724.055420 966.595703,719.174194 962.165405,714.000732 
	C959.797729,711.115479 957.527954,708.522461 955.157349,705.596680 
	C951.624390,700.869873 948.192261,696.475830 944.760132,692.081848 
	C948.281921,689.213989 951.643494,689.376465 954.995728,692.457214 
	C956.819458,694.133301 958.761292,695.699646 960.766052,697.155579 
	C963.763123,699.332214 966.391541,700.839478 970.921387,700.424988 
	C977.624756,699.811523 984.607788,701.611572 991.402649,702.784363 
	C1002.412964,704.684753 1013.372986,706.880371 1024.342651,709.010986 
	C1029.836426,710.078064 1035.298340,711.308167 1040.788086,712.396790 
	C1042.399658,712.716309 1044.052368,712.887817 1045.694580,712.984558 
	C1062.858765,713.995911 1080.015869,715.429504 1097.193970,715.758118 
	C1104.636230,715.900452 1112.195923,714.096680 1119.567017,712.536987 
	C1126.495117,711.071045 1133.300293,708.935547 1140.055176,706.768921 
	C1145.321045,705.079895 1150.426636,702.890991 1156.003540,700.873108 
	C1157.386230,701.195007 1158.368774,701.567993 1160.027344,702.018127 
	C1172.269531,705.968140 1183.843384,709.818848 1195.391846,713.744263 
	C1196.708862,714.191895 1197.883423,715.058289 1198.943481,716.035278 
	C1197.472534,717.383606 1196.339966,718.826782 1194.867065,719.408447 
	C1181.505737,724.685547 1168.271973,730.389343 1154.625488,734.809875 
	C1142.557251,738.719238 1129.779907,740.459351 1117.752686,744.468323 
	C1109.251831,747.301758 1100.864136,748.903137 1092.015869,749.044556 
	C1087.225464,749.121033 1082.441284,749.638184 1077.656250,749.982910 
	C1072.459595,750.357239 1067.175659,751.558167 1062.088501,750.986511 
	C1051.794678,749.829712 1041.655151,746.729736 1031.365967,746.240601 
	C1017.061768,745.560608 1004.170166,740.920715 991.642578,734.890137 
	C987.607056,732.947571 985.558716,733.146301 983.940308,737.171082 
z"/>






































































































<path fill="#300A4B" opacity="1.000000" stroke="none" 
	d="
M1300.222412,730.745605 
	C1304.089478,730.405884 1308.076416,730.421082 1312.504639,730.570923 
	C1308.744629,730.837219 1304.543579,730.968872 1300.222412,730.745605 
z"/>
<path fill="#300A4B" opacity="1.000000" stroke="none" 
	d="
M1315.160889,730.972778 
	C1316.098389,730.633728 1317.152100,730.552490 1318.584473,730.604858 
	C1317.734497,730.902527 1316.505737,731.066528 1315.160889,730.972778 
z"/>


























<path fill="#701BFC" opacity="1.000000" stroke="none" 
	d="
M1198.943481,716.035278 
	C1204.808960,716.936218 1210.494019,718.141846 1216.922607,719.533691 
	C1219.407104,720.013306 1221.147705,720.306763 1223.188477,720.691895 
	C1223.693970,720.745544 1223.899536,720.707581 1224.279663,720.867676 
	C1225.065674,721.660950 1225.677124,722.256226 1226.288452,722.851501 
	C1220.380249,727.867065 1214.310303,732.706787 1208.611084,737.949646 
	C1203.385864,742.756592 1198.420166,747.869202 1193.607300,753.093262 
	C1190.285645,756.698730 1184.405762,758.318665 1179.697754,757.587769 
	C1176.755737,757.130981 1173.094482,757.701782 1170.511475,759.154602 
	C1158.603638,765.852722 1148.378418,775.514343 1134.357178,778.468445 
	C1126.801758,780.060242 1119.514526,782.885498 1112.011108,784.777222 
	C1107.711060,785.861206 1103.237183,786.337708 1098.812500,786.825928 
	C1091.256592,787.659668 1083.678345,788.292358 1076.108643,789.000793 
	C1065.984131,789.948303 1056.264526,788.372192 1047.033447,784.109131 
	C1044.024048,782.719360 1041.640625,783.186646 1039.276611,785.873779 
	C1023.159302,772.419006 1007.332520,758.841492 991.582336,745.175476 
	C988.960205,742.900330 986.671936,740.240417 984.084839,737.464722 
	C985.558716,733.146301 987.607056,732.947571 991.642578,734.890137 
	C1004.170166,740.920715 1017.061768,745.560608 1031.365967,746.240601 
	C1041.655151,746.729736 1051.794678,749.829712 1062.088501,750.986511 
	C1067.175659,751.558167 1072.459595,750.357239 1077.656250,749.982910 
	C1082.441284,749.638184 1087.225464,749.121033 1092.015869,749.044556 
	C1100.864136,748.903137 1109.251831,747.301758 1117.752686,744.468323 
	C1129.779907,740.459351 1142.557251,738.719238 1154.625488,734.809875 
	C1168.271973,730.389343 1181.505737,724.685547 1194.867065,719.408447 
	C1196.339966,718.826782 1197.472534,717.383606 1198.943481,716.035278 
z"/>




































































































































































































</svg>
