<svg width="1200" height="760" viewBox="0 0 1200 760" fill="none" xmlns="http://www.w3.org/2000/svg">
  <defs>
    <linearGradient id="bg4" x1="120" y1="70" x2="1080" y2="700" gradientUnits="userSpaceOnUse"><stop stop-color="#171822"/><stop offset="1" stop-color="#090A10"/></linearGradient>
    <linearGradient id="flow" x1="0" y1="0" x2="1" y2="0"><stop stop-color="#3C3BFF"/><stop offset="0.5" stop-color="#9E55FF"/><stop offset="1" stop-color="#42D788"/></linearGradient>
    <filter id="glow" x="-30%" y="-30%" width="160%" height="160%"><feGaussianBlur stdDeviation="14"/></filter>
    <filter id="shadow4" x="60" y="45" width="1080" height="665" filterUnits="userSpaceOnUse"><feDropShadow dx="0" dy="28" stdDeviation="30" flood-color="#000000" flood-opacity="0.4"/></filter>
  </defs>
  <rect width="1200" height="760" fill="url(#bg4)"/>
  <ellipse cx="602" cy="387" rx="390" ry="190" fill="#6E4CFF" fill-opacity="0.1" filter="url(#glow)"/>
  <g filter="url(#shadow4)">
    <rect x="94" y="78" width="1012" height="594" rx="30" fill="#101119" stroke="#292B38" stroke-width="2"/>
    <rect x="94" y="78" width="1012" height="72" rx="30" fill="#171821"/>
    <circle cx="136" cy="114" r="7" fill="#FF6967"/><circle cx="158" cy="114" r="7" fill="#FFC65B"/><circle cx="180" cy="114" r="7" fill="#4FD389"/>
    <rect x="218" y="104" width="224" height="20" rx="10" fill="#242631"/>
    <rect x="902" y="98" width="160" height="34" rx="17" fill="#282A36"/>
    <path d="M273 390H432C462 390 466 312 503 312H652C689 312 690 454 730 454H915" stroke="url(#flow)" stroke-width="7" stroke-linecap="round"/>
    <circle cx="433" cy="390" r="10" fill="#5B49FF"/><circle cx="503" cy="312" r="10" fill="#7C4FFF"/><circle cx="652" cy="312" r="10" fill="#9E55FF"/><circle cx="730" cy="454" r="10" fill="#6D93C4"/>
    <rect x="154" y="290" width="210" height="200" rx="24" fill="#1A1C27" stroke="#343747"/>
    <circle cx="206" cy="346" r="25" fill="#2D3050"/><path d="M195 346H217M206 335V357" stroke="#8585FF" stroke-width="5" stroke-linecap="round"/>
    <rect x="246" y="330" width="76" height="10" rx="5" fill="#FFFFFF"/>
    <rect x="246" y="352" width="58" height="8" rx="4" fill="#767A8D"/>
    <rect x="184" y="405" width="148" height="12" rx="6" fill="#3A3D4C"/>
    <rect x="184" y="435" width="112" height="12" rx="6" fill="#2C2F3B"/>
    <rect x="480" y="212" width="236" height="200" rx="24" fill="#1A1C27" stroke="#4E3F85"/>
    <circle cx="534" cy="270" r="27" fill="#33275B"/><path d="M522 270L531 279L548 260" stroke="#B282FF" stroke-width="6" stroke-linecap="round" stroke-linejoin="round"/>
    <rect x="578" y="253" width="88" height="11" rx="5.5" fill="#FFFFFF"/>
    <rect x="578" y="277" width="62" height="8" rx="4" fill="#858092"/>
    <rect x="512" y="328" width="170" height="13" rx="6.5" fill="#413458"/>
    <rect x="512" y="358" width="126" height="13" rx="6.5" fill="#2D2938"/>
    <rect x="812" y="354" width="234" height="200" rx="24" fill="#1A1C27" stroke="#315B50"/>
    <circle cx="866" cy="412" r="27" fill="#1E493B"/><path d="M854 412L863 421L881 402" stroke="#56E09B" stroke-width="6" stroke-linecap="round" stroke-linejoin="round"/>
    <rect x="910" y="395" width="88" height="11" rx="5.5" fill="#FFFFFF"/>
    <rect x="910" y="419" width="62" height="8" rx="4" fill="#7F8E89"/>
    <rect x="844" y="470" width="170" height="13" rx="6.5" fill="#294139"/>
    <rect x="844" y="500" width="126" height="13" rx="6.5" fill="#25312E"/>
    <rect x="154" y="574" width="286" height="52" rx="18" fill="#171923" stroke="#292C38"/>
    <circle cx="185" cy="600" r="9" fill="#62DA96"/><rect x="207" y="593" width="104" height="12" rx="6" fill="#E5E7EC"/><rect x="333" y="588" width="78" height="24" rx="12" fill="#252837"/>
    <rect x="762" y="186" width="284" height="78" rx="20" fill="#171923" stroke="#292C38"/>
    <rect x="792" y="210" width="94" height="11" rx="5.5" fill="#E5E7EC"/><rect x="792" y="235" width="142" height="8" rx="4" fill="#555969"/><circle cx="1001" cy="225" r="18" fill="#2D3050"/>
  </g>
</svg>
